<svg xmlns="http://www.w3.org/2000/svg" width="120" height="40" viewBox="0 0 120 40" fill="none">
  <rect x="5" y="5" width="30" height="30" rx="4" fill="#4CAF50" fill-opacity="0.2"/>
  <rect x="5" y="5" width="30" height="30" rx="4" stroke="#4CAF50" stroke-width="2"/>

  <!-- Garden grid -->
  <line x1="11" y1="5" x2="11" y2="35" stroke="#4CAF50" stroke-width="0.5"/>
  <line x1="17" y1="5" x2="17" y2="35" stroke="#4CAF50" stroke-width="0.5"/>
  <line x1="23" y1="5" x2="23" y2="35" stroke="#4CAF50" stroke-width="0.5"/>
  <line x1="29" y1="5" x2="29" y2="35" stroke="#4CAF50" stroke-width="0.5"/>

  <line x1="5" y1="11" x2="35" y2="11" stroke="#4CAF50" stroke-width="0.5"/>
  <line x1="5" y1="17" x2="35" y2="17" stroke="#4CAF50" stroke-width="0.5"/>
  <line x1="5" y1="23" x2="35" y2="23" stroke="#4CAF50" stroke-width="0.5"/>
  <line x1="5" y1="29" x2="35" y2="29" stroke="#4CAF50" stroke-width="0.5"/>

  <!-- Tree -->
  <circle cx="11" cy="23" r="2" fill="#388E3C"/>
  <path d="M11 21L11 29" stroke="#8B4513" stroke-width="1"/>

  <!-- Pond -->
  <circle cx="23" cy="17" r="3" fill="#2196F3" fill-opacity="0.7"/>

  <!-- House -->
  <rect x="25" y="23" width="5" height="4" fill="#E5E5E5"/>
  <path d="M24 23L27.5 20L31 23H24Z" fill="#A52A2A"/>

  <!-- App name -->
  <text x="40" y="20" font-family="Arial" font-size="9" font-weight="bold" fill="#4CAF50">Virtual Garden</text>
  <text x="40" y="30" font-family="Arial" font-size="9" font-weight="bold" fill="#4CAF50">Assistant</text>
</svg>
